<svg xmlns="http://www.w3.org/2000/svg" width="16" height="16" version="1.1">
 <g>
  <path style="fill:#0277bd" d="M 16,8 C 16,10.169 15,12.287 13.6,13.728 12.14,15.222 6.02,15.845 5.07,15.444 4.61,15.248 4.05,14.979 3.63,14.702 1.43,13.254 0.01,7.313 0.07,6.905 0.56,3.8 2.87,1.166 5.85,0.293 6.54,0.092 10.62,0.332 11.73,0.927 14.26,2.271 16,4.937 16,8 Z"/>
  <path style="fill:#29b6f6" d="M 8,0 C 7.1,0 6.55,0.11 5.85,0.293 5.51,1.001 6.52,0.017 6.48,0.621 6.41,1.13 7.23,1.283 6.7,1.808 6.95,1.873 6.96,1.971 6.97,2.234 6.93,2.181 5.93,2.236 6.37,1.926 6.95,1.368 6.19,1.819 5.85,1.77 5.84,2.13 5.54,1.516 5.25,1.906 5.81,1.814 5.16,2.325 5.55,2.382 6.31,2.247 5.46,2.614 5.09,2.763 5.19,2.309 4.87,2.685 4.53,2.736 4.29,3.122 3.76,3.26 3.37,3.544 3.41,3.934 2.96,4.178 2.6,4.355 1.89,4.372 2.69,5.555 2.02,5.204 2,4.827 1.8,4.694 1.35,4.706 1.07,4.979 0.72,4.69 0.55,5.068 0.55,5.068 0.44,5.267 0.21,6.186 0.16,6.366 0.22,6.47 0.45,6.408 0.61,5.964 1.36,5.862 1.05,6.456 0.29,7.13 1.94,6.575 1.5,7.256 1.23,7.917 1.96,7.865 2.32,7.914 2.44,7.902 2.77,7.586 3.19,7.512 3.52,7.47 3.94,7.764 4.25,7.686 4.79,7.414 4.89,8.386 5.53,8.356 6.33,8.257 6.04,9.402 6.8,9.346 7.27,9.776 8.24,9.555 8.53,10.265 8.45,10.883 7.73,11.273 7.96,11.995 8.04,12.845 6.55,12.5 6.81,13.321 6.51,13.697 6.42,14.628 5.71,14.328 6.1,14.63 5.9,15.087 5.36,15.023 5.54,15.404 4.96,15.269 5.07,15.444 5.94,15.829 6.96,16 8,15.999 9.8,15.998 11.66,15.403 12.84,14.367 13.07,14.186 13.94,13.534 13.65,13.518 13.54,13.209 13.81,12.303 13.56,11.739 13.36,11.137 14.36,10.644 13.89,10.006 13.4,9.652 13.51,9.134 13.53,8.679 13.11,8.711 12.96,8.322 12.58,8.297 11.84,8.459 11,8.798 10.4,8.196 10.29,7.809 9.69,7.565 9.74,7.151 9.67,6.799 9.95,6.351 9.78,5.979 9.98,5.246 10.77,5.062 10.97,4.357 11.29,4.309 11.65,3.656 11.1,3.728 10.91,3.438 10.99,2.593 11.53,2.775 12.11,3.081 12.47,2.208 11.77,2.147 11.82,1.869 12.53,2.01 12.73,1.603 12.48,1.472 11.71,2.077 11.75,1.555 12.09,1.324 11.95,1.182 11.73,0.927 10.84,0.412 9.45,0 8,0 Z M 4.71,0.729 C 4.44,0.849 4.24,0.957 4.03,1.072 3.67,1.278 3.41,1.502 3.92,1.556 3.91,1.004 4.58,1.237 4.71,0.729 Z M 13.45,2.656 C 13.01,2.896 12.67,2.755 12.38,3.257 12.3,3.697 11.68,3.672 11.57,3.918 12.15,4.1 12.75,3.529 13.42,3.706 13.99,3.597 13.49,4.172 13.76,4.306 14.21,4.131 14.89,5.176 15.01,4.388 15.05,4.242 14.54,3.327 14.45,3.541 14.38,3.46 13.81,2.831 13.45,2.656 Z M 0.07,6.905 C 0.01,7.268 0,7.634 0,8 0,10.205 0.9,12.302 2.46,13.77 3.4,14.629 3.63,14.702 3.63,14.702 3.76,14.249 3.55,13.756 3.6,13.312 3.57,12.851 3.6,12.362 3.45,11.934 2.72,11.645 2.35,11.083 2.03,10.376 1.57,10.1 1.97,9.784 1.79,9.472 2.08,8.977 2.64,8.434 2.05,7.907 1.87,8.303 1.59,8.031 1.3,7.856 1.14,7.278 0.43,7.305 0.07,6.905 Z"/>
  <g style="opacity:0.15">
   <path d="M 8,5 A 4,4 0 0 0 4,9 4,4 0 0 0 8,13 4,4 0 0 0 12,9 4,4 0 0 0 8,5 Z M 8,6 A 3,3 0 0 1 11,9 3,3 0 0 1 8,12 3,3 0 0 1 5,9 3,3 0 0 1 8,6 Z"/>
   <path d="M 12,12 A 1,1 0 0 0 11.293,12.293 1,1 0 0 0 11.293,13.707 L 13.586,16 H 16 A 1,1 0 0 0 15.707,15.293 L 12.707,12.293 A 1,1 0 0 0 12,12 Z"/>
   <path style="fill:none;stroke:#000000" d="M 10.5,11.5 12,13"/>
  </g>
  <path style="fill:none;stroke:#c2c2c2" d="M 10.5,10.5 12,12"/>
  <path style="fill:#e4e4e4" d="M 8,4 A 4,4 0 0 0 4,8 4,4 0 0 0 8,12 4,4 0 0 0 12,8 4,4 0 0 0 8,4 Z M 8,5 A 3,3 0 0 1 11,8 3,3 0 0 1 8,11 3,3 0 0 1 5,8 3,3 0 0 1 8,5 Z"/>
  <path style="fill:none;stroke:#f5a816;stroke-width:2;stroke-linecap:round" d="M 12,12 15,15"/>
 </g>
</svg>
